# xmcd
#
# Track frame offsets: 
#        150
#        16655
#        29255
#        44192
#        54300
#        69527
#        81455
#        99232
#        112652
#        126150
#        138752
#        150447
#        165600
#        181120
#        204010
#        216600
#        231375
#        247352
#        260490
#        271947
#        283650
#        297750
#        311325
#        328347
#
# Disc length: 4556 seconds
#
# Revision: 2
# Processed by: cddbd v1.5.2PL0 Copyright (c) Steve Scherf et al.
# Submitted via: ExactAudioCopy v0.99pb5
#
DISCID=5a11ca18
DTITLE=Eileen Farrell - The Eileen Farrell Album - I Gotta Right to Si
DTITLE=ng the Blues
DYEAR=1991
DGENRE=Jazz
TTITLE0=Blues in the NIght
TTITLE1=Wrap Your Troubles in Dreams
TTITLE2=Dreamy
TTITLE3=Looking for a Boy
TTITLE4=Supper Time
TTITLE5=On the Sunny Side of the Street
TTITLE6=I Got it Bad and That Ain't Good
TTITLE7=Ten Cents a Dance
TTITLE8=Somebody Loves Me
TTITLE9=September Song
TTITLE10=I'm Old Fashioned
TTITLE11=Solitaire (The Game of Love)
TTITLE12=To Be in Love
TTITLE13=My Funny Valentine
TTITLE14=Ev'rytime
TTITLE15=A Foggy Day
TTITLE16=The Second Time Around
TTITLE17=Taking a Chance on Love
TTITLE18=Glad to be Unhappy
TTITLE19=He was Too Good to Me
TTITLE20=Old Devil Moon
TTITLE21=Fly Me to the Moon
TTITLE22=The Man I Love
TTITLE23=I Gotta Right to Sing the Blues
EXTD=
EXTT0=
EXTT1=
EXTT2=
EXTT3=
EXTT4=
EXTT5=
EXTT6=
EXTT7=
EXTT8=
EXTT9=
EXTT10=
EXTT11=
EXTT12=
EXTT13=
EXTT14=
EXTT15=
EXTT16=
EXTT17=
EXTT18=
EXTT19=
EXTT20=
EXTT21=
EXTT22=
EXTT23=
PLAYORDER=
